<svg xmlns="http://www.w3.org/2000/svg" width="107" height="190" viewBox="0 0 10700 19000">
<g id="glyph-100" data-key="100" data-advance="10700" data-offset="0" data-components="1" data-holes="1" data-painting="0 1 "><g transform="translate(0 0)">
<path id="glyph-100-arm-0-source" data-component="0" data-parent="0" data-root="1" data-join="0 0" data-marks="000000001000000000000000000000000000000100000000000000100000000000000010000000000000010000000" d="M5400 8400 L5536 8404 L5668 8416 L5804 8440 L5932 8468 L6064 8508 L6188 8556 L6312 8608 L6428 8672 L6544 8740 L6652 8820 L6752 8900 L6848 8992 L6940 9088 L7020 9188 L7096 9296 L7164 9408 L7224 9524 L7276 9640 L7316 9764 L7352 9888 L7376 10012 L7392 10140 L7400 10268 L7396 10396 L7384 10524 L7364 10652 L7336 10776 L7296 10900 L7252 11020 L7196 11136 L7132 11248 L7060 11356 L6980 11464 L6896 11560 L6800 11656 L6704 11740 L6596 11820 L6488 11896 L6372 11960 L6252 12020 L6128 12068 L6000 12112 L5868 12148 L5736 12172 L5604 12188 L5468 12200 L5332 12200 L5196 12188 L5064 12172 L4932 12148 L4800 12112 L4672 12068 L4548 12020 L4428 11960 L4312 11896 L4204 11820 L4096 11740 L4000 11656 L3904 11560 L3820 11464 L3740 11356 L3668 11248 L3604 11136 L3548 11020 L3504 10900 L3464 10776 L3436 10652 L3416 10524 L3404 10396 L3400 10268 L3408 10140 L3424 10012 L3448 9888 L3484 9764 L3524 9640 L3576 9524 L3636 9408 L3704 9296 L3780 9188 L3860 9088 L3952 8992 L4048 8900 L4148 8820 L4256 8740 L4372 8672 L4488 8608 L4612 8556 L4736 8508 L4868 8468 L4996 8440 L5132 8416 L5264 8404 L5400 8400 L5400 6400 L5136 6408 L4876 6432 L4612 6476 L4356 6536 L4104 6612 L3856 6704 L3616 6812 L3380 6936 L3152 7072 L2936 7228 L2732 7396 L2536 7576 L2352 7772 L2184 7980 L2032 8200 L1892 8428 L1768 8668 L1660 8916 L1572 9168 L1500 9428 L1448 9692 L1416 9964 L1400 10232 L1404 10504 L1428 10772 L1472 11036 L1536 11300 L1616 11560 L1712 11812 L1828 12052 L1960 12288 L2108 12512 L2268 12724 L2444 12928 L2632 13116 L2832 13292 L3044 13452 L3264 13600 L3496 13728 L3736 13844 L3980 13944 L4228 14028 L4484 14096 L4744 14148 L5004 14180 L5268 14196 L5532 14196 L5796 14180 L6056 14148 L6316 14096 L6572 14028 L6820 13944 L7064 13844 L7304 13728 L7536 13600 L7756 13452 L7968 13292 L8168 13116 L8356 12928 L8532 12724 L8692 12512 L8840 12288 L8972 12052 L9088 11812 L9184 11560 L9264 11300 L9328 11036 L9372 10772 L9396 10504 L9400 10232 L9384 9964 L9352 9692 L9300 9428 L9228 9168 L9140 8916 L9032 8668 L8908 8428 L8768 8200 L8616 7980 L8448 7772 L8264 7576 L8068 7396 L7864 7228 L7648 7072 L7420 6936 L7184 6812 L6944 6704 L6696 6612 L6444 6536 L6188 6476 L5924 6432 L5664 6408 L5400 6400 Z" fill="none" stroke="none"/>
<path id="glyph-100-arm-1-source" data-component="0" data-parent="0" data-root="0" data-join="8168 13116" data-marks="000000000000000000000000000000001000000000000100000" d="M9600 13200 L9600 13000 L9600 12800 L9600 12600 L9600 12400 L9600 12200 L9600 12000 L9600 11800 L9600 11600 L9600 11400 L9600 11200 L9600 11000 L9600 10800 L9600 10600 L9600 10400 L9600 10200 L9600 10000 L9600 9800 L9600 9600 L9600 9400 L9600 9200 L9600 9000 L9600 8800 L9600 8600 L9600 8400 L9600 8200 L9600 8000 L9600 7800 L9600 7600 L9600 7400 L9600 7200 L9600 7000 L9600 6800 L9600 6600 L9600 6400 L9600 6200 L9600 6000 L9600 5800 L9600 5600 L9600 5400 L9600 5200 L9600 5000 L9600 4800 L9600 4600 L9600 4400 L9600 4200 L9600 4000 L9600 3800 L9600 3600 L9600 3400 L9600 3200 L9600 3000 L7600 3000 L7600 3200 L7600 3400 L7600 3600 L7600 3800 L7600 4000 L7600 4200 L7600 4400 L7600 4600 L7600 4800 L7600 5000 L7600 5200 L7600 5400 L7600 5600 L7600 5800 L7600 6000 L7600 6200 L7600 6400 L7600 6600 L7600 6800 L7600 7000 L7600 7200 L7600 7400 L7600 7600 L7600 7800 L7600 8000 L7600 8200 L7600 8400 L7600 8600 L7600 8800 L7600 9000 L7600 9200 L7600 9400 L7600 9600 L7600 9800 L7600 10000 L7600 10200 L7600 10400 L7600 10600 L7600 10800 L7600 11000 L7600 11200 L7600 11400 L7600 11600 L7600 11800 L7600 12000 L7600 12200 L7600 12400 L7600 12600 L7600 12800 L7600 13000 L7600 13200 Z" fill="none" stroke="none"/>
<path id="glyph-100-arm-0-fill" d="M5400 8400 L5400 6400 L5664 6408 L5536 8404 ZM5536 8404 L5664 6408 L5924 6432 L5668 8416 ZM5668 8416 L5924 6432 L6188 6476 L5804 8440 ZM5804 8440 L6188 6476 L6444 6536 L5932 8468 ZM5932 8468 L6444 6536 L6696 6612 L6064 8508 ZM6064 8508 L6696 6612 L6944 6704 L6188 8556 ZM6188 8556 L6944 6704 L7184 6812 L6312 8608 ZM6312 8608 L7184 6812 L7420 6936 L6428 8672 ZM6428 8672 L7420 6936 L7648 7072 L6544 8740 ZM6544 8740 L7648 7072 L7864 7228 L6652 8820 ZM6652 8820 L7864 7228 L8068 7396 L6752 8900 ZM6752 8900 L8068 7396 L8264 7576 L6848 8992 ZM6848 8992 L8264 7576 L8448 7772 L6940 9088 ZM6940 9088 L8448 7772 L8616 7980 L7020 9188 ZM7020 9188 L8616 7980 L8768 8200 L7096 9296 ZM7096 9296 L8768 8200 L8908 8428 L7164 9408 ZM7164 9408 L8908 8428 L9032 8668 L7224 9524 ZM7224 9524 L9032 8668 L9140 8916 L7276 9640 ZM7276 9640 L9140 8916 L9228 9168 L7316 9764 ZM7316 9764 L9228 9168 L9300 9428 L7352 9888 ZM7352 9888 L9300 9428 L9352 9692 L7376 10012 ZM7376 10012 L9352 9692 L9384 9964 L7392 10140 ZM7392 10140 L9384 9964 L9400 10232 L7400 10268 ZM7400 10268 L9400 10232 L9396 10504 L7396 10396 ZM7396 10396 L9396 10504 L9372 10772 L7384 10524 ZM7384 10524 L9372 10772 L9328 11036 L7364 10652 ZM7364 10652 L9328 11036 L9264 11300 L7336 10776 ZM7336 10776 L9264 11300 L9184 11560 L7296 10900 ZM7296 10900 L9184 11560 L9088 11812 L7252 11020 ZM7252 11020 L9088 11812 L8972 12052 L7196 11136 ZM7196 11136 L8972 12052 L8840 12288 L7132 11248 ZM7132 11248 L8840 12288 L8692 12512 L7060 11356 ZM7060 11356 L8692 12512 L8532 12724 L6980 11464 ZM6980 11464 L8532 12724 L8356 12928 L6896 11560 ZM6896 11560 L8356 12928 L8168 13116 L6800 11656 ZM6800 11656 L8168 13116 L7968 13292 L6704 11740 ZM6704 11740 L7968 13292 L7756 13452 L6596 11820 ZM6596 11820 L7756 13452 L7536 13600 L6488 11896 ZM6488 11896 L7536 13600 L7304 13728 L6372 11960 ZM6372 11960 L7304 13728 L7064 13844 L6252 12020 ZM6252 12020 L7064 13844 L6820 13944 L6128 12068 ZM6128 12068 L6820 13944 L6572 14028 L6000 12112 ZM6000 12112 L6572 14028 L6316 14096 L5868 12148 ZM5868 12148 L6316 14096 L6056 14148 L5736 12172 ZM5736 12172 L6056 14148 L5796 14180 L5604 12188 ZM5604 12188 L5796 14180 L5532 14196 L5468 12200 ZM5468 12200 L5532 14196 L5268 14196 L5332 12200 ZM5332 12200 L5268 14196 L5004 14180 L5196 12188 ZM5196 12188 L5004 14180 L4744 14148 L5064 12172 ZM5064 12172 L4744 14148 L4484 14096 L4932 12148 ZM4932 12148 L4484 14096 L4228 14028 L4800 12112 ZM4800 12112 L4228 14028 L3980 13944 L4672 12068 ZM4672 12068 L3980 13944 L3736 13844 L4548 12020 ZM4548 12020 L3736 13844 L3496 13728 L4428 11960 ZM4428 11960 L3496 13728 L3264 13600 L4312 11896 ZM4312 11896 L3264 13600 L3044 13452 L4204 11820 ZM4204 11820 L3044 13452 L2832 13292 L4096 11740 ZM4096 11740 L2832 13292 L2632 13116 L4000 11656 ZM4000 11656 L2632 13116 L2444 12928 L3904 11560 ZM3904 11560 L2444 12928 L2268 12724 L3820 11464 ZM3820 11464 L2268 12724 L2108 12512 L3740 11356 ZM3740 11356 L2108 12512 L1960 12288 L3668 11248 ZM3668 11248 L1960 12288 L1828 12052 L3604 11136 ZM3604 11136 L1828 12052 L1712 11812 L3548 11020 ZM3548 11020 L1712 11812 L1616 11560 L3504 10900 ZM3504 10900 L1616 11560 L1536 11300 L3464 10776 ZM3464 10776 L1536 11300 L1472 11036 L3436 10652 ZM3436 10652 L1472 11036 L1428 10772 L3416 10524 ZM3416 10524 L1428 10772 L1404 10504 L3404 10396 ZM3404 10396 L1404 10504 L1400 10232 L3400 10268 ZM3400 10268 L1400 10232 L1416 9964 L3408 10140 ZM3408 10140 L1416 9964 L1448 9692 L3424 10012 ZM3424 10012 L1448 9692 L1500 9428 L3448 9888 ZM3448 9888 L1500 9428 L1572 9168 L3484 9764 ZM3484 9764 L1572 9168 L1660 8916 L3524 9640 ZM3524 9640 L1660 8916 L1768 8668 L3576 9524 ZM3576 9524 L1768 8668 L1892 8428 L3636 9408 ZM3636 9408 L1892 8428 L2032 8200 L3704 9296 ZM3704 9296 L2032 8200 L2184 7980 L3780 9188 ZM3780 9188 L2184 7980 L2352 7772 L3860 9088 ZM3860 9088 L2352 7772 L2536 7576 L3952 8992 ZM3952 8992 L2536 7576 L2732 7396 L4048 8900 ZM4048 8900 L2732 7396 L2936 7228 L4148 8820 ZM4148 8820 L2936 7228 L3152 7072 L4256 8740 ZM4256 8740 L3152 7072 L3380 6936 L4372 8672 ZM4372 8672 L3380 6936 L3616 6812 L4488 8608 ZM4488 8608 L3616 6812 L3856 6704 L4612 8556 ZM4612 8556 L3856 6704 L4104 6612 L4736 8508 ZM4736 8508 L4104 6612 L4356 6536 L4868 8468 ZM4868 8468 L4356 6536 L4612 6476 L4996 8440 ZM4996 8440 L4612 6476 L4876 6432 L5132 8416 ZM5132 8416 L4876 6432 L5136 6408 L5264 8404 ZM5264 8404 L5136 6408 L5400 6400 L5400 8400 Z" fill="#7593A7" fill-rule="nonzero"/>
<path id="glyph-100-arm-0-shade" d="M5400 6900 L5400 6400 L5664 6408 L5632 6907 ZM5632 6907 L5664 6408 L5924 6432 L5860 6928 ZM5860 6928 L5924 6432 L6188 6476 L6092 6967 ZM6092 6967 L6188 6476 L6444 6536 L6316 7019 ZM6316 7019 L6444 6536 L6696 6612 L6538 7086 ZM6538 7086 L6696 6612 L6944 6704 L6755 7167 ZM6755 7167 L6944 6704 L7184 6812 L6966 7261 ZM6966 7261 L7184 6812 L7420 6936 L7172 7370 ZM7172 7370 L7420 6936 L7648 7072 L7372 7489 ZM7372 7489 L7648 7072 L7864 7228 L7561 7626 ZM7561 7626 L7864 7228 L8068 7396 L7739 7772 ZM7739 7772 L8068 7396 L8264 7576 L7910 7930 ZM7910 7930 L8264 7576 L8448 7772 L8071 8101 ZM8071 8101 L8448 7772 L8616 7980 L8217 8282 ZM8217 8282 L8616 7980 L8768 8200 L8350 8474 ZM8350 8474 L8768 8200 L8908 8428 L8472 8673 ZM8472 8673 L8908 8428 L9032 8668 L8580 8882 ZM8580 8882 L9032 8668 L9140 8916 L8674 9097 ZM8674 9097 L9140 8916 L9228 9168 L8750 9317 ZM8750 9317 L9228 9168 L9300 9428 L8813 9543 ZM8813 9543 L9300 9428 L9352 9692 L8858 9772 ZM8858 9772 L9352 9692 L9384 9964 L8886 10008 ZM8886 10008 L9384 9964 L9400 10232 L8900 10241 ZM8900 10241 L9400 10232 L9396 10504 L8896 10477 ZM8896 10477 L9396 10504 L9372 10772 L8875 10710 ZM8875 10710 L9372 10772 L9328 11036 L8837 10940 ZM8837 10940 L9328 11036 L9264 11300 L8782 11169 ZM8782 11169 L9264 11300 L9184 11560 L8712 11395 ZM8712 11395 L9184 11560 L9088 11812 L8629 11614 ZM8629 11614 L9088 11812 L8972 12052 L8528 11823 ZM8528 11823 L8972 12052 L8840 12288 L8413 12028 ZM8413 12028 L8840 12288 L8692 12512 L8284 12223 ZM8284 12223 L8692 12512 L8532 12724 L8144 12409 ZM8144 12409 L8532 12724 L8356 12928 L7991 12586 ZM7991 12586 L8356 12928 L8168 13116 L7826 12751 ZM7826 12751 L8168 13116 L7968 13292 L7652 12904 ZM7652 12904 L7968 13292 L7756 13452 L7466 13044 ZM7466 13044 L7756 13452 L7536 13600 L7274 13174 ZM7274 13174 L7536 13600 L7304 13728 L7071 13286 ZM7071 13286 L7304 13728 L7064 13844 L6861 13388 ZM6861 13388 L7064 13844 L6820 13944 L6647 13475 ZM6647 13475 L6820 13944 L6572 14028 L6429 13549 ZM6429 13549 L6572 14028 L6316 14096 L6204 13609 ZM6204 13609 L6316 14096 L6056 14148 L5976 13654 ZM5976 13654 L6056 14148 L5796 14180 L5748 13682 ZM5748 13682 L5796 14180 L5532 14196 L5516 13697 ZM5516 13697 L5532 14196 L5268 14196 L5284 13697 ZM5284 13697 L5268 14196 L5004 14180 L5052 13682 ZM5052 13682 L5004 14180 L4744 14148 L4824 13654 ZM4824 13654 L4744 14148 L4484 14096 L4596 13609 ZM4596 13609 L4484 14096 L4228 14028 L4371 13549 ZM4371 13549 L4228 14028 L3980 13944 L4153 13475 ZM4153 13475 L3980 13944 L3736 13844 L3939 13388 ZM3939 13388 L3736 13844 L3496 13728 L3729 13286 ZM3729 13286 L3496 13728 L3264 13600 L3526 13174 ZM3526 13174 L3264 13600 L3044 13452 L3334 13044 ZM3334 13044 L3044 13452 L2832 13292 L3148 12904 ZM3148 12904 L2832 13292 L2632 13116 L2974 12751 ZM2974 12751 L2632 13116 L2444 12928 L2809 12586 ZM2809 12586 L2444 12928 L2268 12724 L2656 12409 ZM2656 12409 L2268 12724 L2108 12512 L2516 12223 ZM2516 12223 L2108 12512 L1960 12288 L2387 12028 ZM2387 12028 L1960 12288 L1828 12052 L2272 11823 ZM2272 11823 L1828 12052 L1712 11812 L2171 11614 ZM2171 11614 L1712 11812 L1616 11560 L2088 11395 ZM2088 11395 L1616 11560 L1536 11300 L2018 11169 ZM2018 11169 L1536 11300 L1472 11036 L1963 10940 ZM1963 10940 L1472 11036 L1428 10772 L1925 10710 ZM1925 10710 L1428 10772 L1404 10504 L1904 10477 ZM1904 10477 L1404 10504 L1400 10232 L1900 10241 ZM1900 10241 L1400 10232 L1416 9964 L1914 10008 ZM1914 10008 L1416 9964 L1448 9692 L1942 9772 ZM1942 9772 L1448 9692 L1500 9428 L1987 9543 ZM1987 9543 L1500 9428 L1572 9168 L2050 9317 ZM2050 9317 L1572 9168 L1660 8916 L2126 9097 ZM2126 9097 L1660 8916 L1768 8668 L2220 8882 ZM2220 8882 L1768 8668 L1892 8428 L2328 8673 ZM2328 8673 L1892 8428 L2032 8200 L2450 8474 ZM2450 8474 L2032 8200 L2184 7980 L2583 8282 ZM2583 8282 L2184 7980 L2352 7772 L2729 8101 ZM2729 8101 L2352 7772 L2536 7576 L2890 7930 ZM2890 7930 L2536 7576 L2732 7396 L3061 7772 ZM3061 7772 L2732 7396 L2936 7228 L3239 7626 ZM3239 7626 L2936 7228 L3152 7072 L3428 7489 ZM3428 7489 L3152 7072 L3380 6936 L3628 7370 ZM3628 7370 L3380 6936 L3616 6812 L3834 7261 ZM3834 7261 L3616 6812 L3856 6704 L4045 7167 ZM4045 7167 L3856 6704 L4104 6612 L4262 7086 ZM4262 7086 L4104 6612 L4356 6536 L4484 7019 ZM4484 7019 L4356 6536 L4612 6476 L4708 6967 ZM4708 6967 L4612 6476 L4876 6432 L4940 6928 ZM4940 6928 L4876 6432 L5136 6408 L5168 6907 ZM5168 6907 L5136 6408 L5400 6400 L5400 6900 Z" fill="#476579" fill-rule="nonzero"/>
<path id="glyph-100-arm-0-seam-8" data-cell="8" d="M6428 8672 Q7010 7855 7420 6936" fill="none" stroke="#17272F" stroke-width="150" stroke-linecap="butt"/>
<path id="glyph-100-arm-0-seam-39" data-cell="39" d="M6372 11960 Q6748 12888 7304 13728" fill="none" stroke="#17272F" stroke-width="150" stroke-linecap="butt"/>
<path id="glyph-100-arm-0-seam-54" data-cell="54" d="M4428 11960 Q3875 12796 3496 13728" fill="none" stroke="#17272F" stroke-width="150" stroke-linecap="butt"/>
<path id="glyph-100-arm-0-seam-70" data-cell="70" d="M3400 10268 Q2406 10151 1400 10232" fill="none" stroke="#17272F" stroke-width="150" stroke-linecap="butt"/>
<path id="glyph-100-arm-0-seam-85" data-cell="85" d="M4372 8672 Q3964 7757 3380 6936" fill="none" stroke="#17272F" stroke-width="150" stroke-linecap="butt"/>
<path id="glyph-100-arm-0-outline" d="M5400 8400 L5536 8404 L5668 8416 L5804 8440 L5932 8468 L6064 8508 L6188 8556 L6312 8608 L6428 8672 L6544 8740 L6652 8820 L6752 8900 L6848 8992 L6940 9088 L7020 9188 L7096 9296 L7164 9408 L7224 9524 L7276 9640 L7316 9764 L7352 9888 L7376 10012 L7392 10140 L7400 10268 L7396 10396 L7384 10524 L7364 10652 L7336 10776 L7296 10900 L7252 11020 L7196 11136 L7132 11248 L7060 11356 L6980 11464 L6896 11560 L6800 11656 L6704 11740 L6596 11820 L6488 11896 L6372 11960 L6252 12020 L6128 12068 L6000 12112 L5868 12148 L5736 12172 L5604 12188 L5468 12200 L5332 12200 L5196 12188 L5064 12172 L4932 12148 L4800 12112 L4672 12068 L4548 12020 L4428 11960 L4312 11896 L4204 11820 L4096 11740 L4000 11656 L3904 11560 L3820 11464 L3740 11356 L3668 11248 L3604 11136 L3548 11020 L3504 10900 L3464 10776 L3436 10652 L3416 10524 L3404 10396 L3400 10268 L3408 10140 L3424 10012 L3448 9888 L3484 9764 L3524 9640 L3576 9524 L3636 9408 L3704 9296 L3780 9188 L3860 9088 L3952 8992 L4048 8900 L4148 8820 L4256 8740 L4372 8672 L4488 8608 L4612 8556 L4736 8508 L4868 8468 L4996 8440 L5132 8416 L5264 8404 L5400 8400 Z M5400 6400 L5400 6400 L5136 6408 L4876 6432 L4612 6476 L4356 6536 L4104 6612 L3856 6704 L3616 6812 L3380 6936 L3152 7072 L2936 7228 L2732 7396 L2536 7576 L2352 7772 L2184 7980 L2032 8200 L1892 8428 L1768 8668 L1660 8916 L1572 9168 L1500 9428 L1448 9692 L1416 9964 L1400 10232 L1404 10504 L1428 10772 L1472 11036 L1536 11300 L1616 11560 L1712 11812 L1828 12052 L1960 12288 L2108 12512 L2268 12724 L2444 12928 L2632 13116 L2832 13292 L3044 13452 L3264 13600 L3496 13728 L3736 13844 L3980 13944 L4228 14028 L4484 14096 L4744 14148 L5004 14180 L5268 14196 L5532 14196 L5796 14180 L6056 14148 L6316 14096 L6572 14028 L6820 13944 L7064 13844 L7304 13728 L7536 13600 L7756 13452 L7968 13292 L8168 13116 L8356 12928 L8532 12724 L8692 12512 L8840 12288 L8972 12052 L9088 11812 L9184 11560 L9264 11300 L9328 11036 L9372 10772 L9396 10504 L9400 10232 L9384 9964 L9352 9692 L9300 9428 L9228 9168 L9140 8916 L9032 8668 L8908 8428 L8768 8200 L8616 7980 L8448 7772 L8264 7576 L8068 7396 L7864 7228 L7648 7072 L7420 6936 L7184 6812 L6944 6704 L6696 6612 L6444 6536 L6188 6476 L5924 6432 L5664 6408 Z" fill="none" stroke="#17272F" stroke-width="280" stroke-linejoin="round"/>
<path id="glyph-100-arm-1-fill" d="M9600 13200 L7600 13200 L7600 13000 L9600 13000 ZM9600 13000 L7600 13000 L7600 12800 L9600 12800 ZM9600 12800 L7600 12800 L7600 12600 L9600 12600 ZM9600 12600 L7600 12600 L7600 12400 L9600 12400 ZM9600 12400 L7600 12400 L7600 12200 L9600 12200 ZM9600 12200 L7600 12200 L7600 12000 L9600 12000 ZM9600 12000 L7600 12000 L7600 11800 L9600 11800 ZM9600 11800 L7600 11800 L7600 11600 L9600 11600 ZM9600 11600 L7600 11600 L7600 11400 L9600 11400 ZM9600 11400 L7600 11400 L7600 11200 L9600 11200 ZM9600 11200 L7600 11200 L7600 11000 L9600 11000 ZM9600 11000 L7600 11000 L7600 10800 L9600 10800 ZM9600 10800 L7600 10800 L7600 10600 L9600 10600 ZM9600 10600 L7600 10600 L7600 10400 L9600 10400 ZM9600 10400 L7600 10400 L7600 10200 L9600 10200 ZM9600 10200 L7600 10200 L7600 10000 L9600 10000 ZM9600 10000 L7600 10000 L7600 9800 L9600 9800 ZM9600 9800 L7600 9800 L7600 9600 L9600 9600 ZM9600 9600 L7600 9600 L7600 9400 L9600 9400 ZM9600 9400 L7600 9400 L7600 9200 L9600 9200 ZM9600 9200 L7600 9200 L7600 9000 L9600 9000 ZM9600 9000 L7600 9000 L7600 8800 L9600 8800 ZM9600 8800 L7600 8800 L7600 8600 L9600 8600 ZM9600 8600 L7600 8600 L7600 8400 L9600 8400 ZM9600 8400 L7600 8400 L7600 8200 L9600 8200 ZM9600 8200 L7600 8200 L7600 8000 L9600 8000 ZM9600 8000 L7600 8000 L7600 7800 L9600 7800 ZM9600 7800 L7600 7800 L7600 7600 L9600 7600 ZM9600 7600 L7600 7600 L7600 7400 L9600 7400 ZM9600 7400 L7600 7400 L7600 7200 L9600 7200 ZM9600 7200 L7600 7200 L7600 7000 L9600 7000 ZM9600 7000 L7600 7000 L7600 6800 L9600 6800 ZM9600 6800 L7600 6800 L7600 6600 L9600 6600 ZM9600 6600 L7600 6600 L7600 6400 L9600 6400 ZM9600 6400 L7600 6400 L7600 6200 L9600 6200 ZM9600 6200 L7600 6200 L7600 6000 L9600 6000 ZM9600 6000 L7600 6000 L7600 5800 L9600 5800 ZM9600 5800 L7600 5800 L7600 5600 L9600 5600 ZM9600 5600 L7600 5600 L7600 5400 L9600 5400 ZM9600 5400 L7600 5400 L7600 5200 L9600 5200 ZM9600 5200 L7600 5200 L7600 5000 L9600 5000 ZM9600 5000 L7600 5000 L7600 4800 L9600 4800 ZM9600 4800 L7600 4800 L7600 4600 L9600 4600 ZM9600 4600 L7600 4600 L7600 4400 L9600 4400 ZM9600 4400 L7600 4400 L7600 4200 L9600 4200 ZM9600 4200 L7600 4200 L7600 4000 L9600 4000 ZM9600 4000 L7600 4000 L7600 3800 L9600 3800 ZM9600 3800 L7600 3800 L7600 3600 L9600 3600 ZM9600 3600 L7600 3600 L7600 3400 L9600 3400 ZM9600 3400 L7600 3400 L7600 3200 L9600 3200 ZM9600 3200 L7600 3200 L7600 3000 L9600 3000 Z" fill="#7593A7" fill-rule="nonzero"/>
<path id="glyph-100-arm-1-shade" d="M8100 13200 L7600 13200 L7600 13000 L8100 13000 ZM8100 13000 L7600 13000 L7600 12800 L8100 12800 ZM8100 12800 L7600 12800 L7600 12600 L8100 12600 ZM8100 12600 L7600 12600 L7600 12400 L8100 12400 ZM8100 12400 L7600 12400 L7600 12200 L8100 12200 ZM8100 12200 L7600 12200 L7600 12000 L8100 12000 ZM8100 12000 L7600 12000 L7600 11800 L8100 11800 ZM8100 11800 L7600 11800 L7600 11600 L8100 11600 ZM8100 11600 L7600 11600 L7600 11400 L8100 11400 ZM8100 11400 L7600 11400 L7600 11200 L8100 11200 ZM8100 11200 L7600 11200 L7600 11000 L8100 11000 ZM8100 11000 L7600 11000 L7600 10800 L8100 10800 ZM8100 10800 L7600 10800 L7600 10600 L8100 10600 ZM8100 10600 L7600 10600 L7600 10400 L8100 10400 ZM8100 10400 L7600 10400 L7600 10200 L8100 10200 ZM8100 10200 L7600 10200 L7600 10000 L8100 10000 ZM8100 10000 L7600 10000 L7600 9800 L8100 9800 ZM8100 9800 L7600 9800 L7600 9600 L8100 9600 ZM8100 9600 L7600 9600 L7600 9400 L8100 9400 ZM8100 9400 L7600 9400 L7600 9200 L8100 9200 ZM8100 9200 L7600 9200 L7600 9000 L8100 9000 ZM8100 9000 L7600 9000 L7600 8800 L8100 8800 ZM8100 8800 L7600 8800 L7600 8600 L8100 8600 ZM8100 8600 L7600 8600 L7600 8400 L8100 8400 ZM8100 8400 L7600 8400 L7600 8200 L8100 8200 ZM8100 8200 L7600 8200 L7600 8000 L8100 8000 ZM8100 8000 L7600 8000 L7600 7800 L8100 7800 ZM8100 7800 L7600 7800 L7600 7600 L8100 7600 ZM8100 7600 L7600 7600 L7600 7400 L8100 7400 ZM8100 7400 L7600 7400 L7600 7200 L8100 7200 ZM8100 7200 L7600 7200 L7600 7000 L8100 7000 ZM8100 7000 L7600 7000 L7600 6800 L8100 6800 ZM8100 6800 L7600 6800 L7600 6600 L8100 6600 ZM8100 6600 L7600 6600 L7600 6400 L8100 6400 ZM8100 6400 L7600 6400 L7600 6200 L8100 6200 ZM8100 6200 L7600 6200 L7600 6000 L8100 6000 ZM8100 6000 L7600 6000 L7600 5800 L8100 5800 ZM8100 5800 L7600 5800 L7600 5600 L8100 5600 ZM8100 5600 L7600 5600 L7600 5400 L8100 5400 ZM8100 5400 L7600 5400 L7600 5200 L8100 5200 ZM8100 5200 L7600 5200 L7600 5000 L8100 5000 ZM8100 5000 L7600 5000 L7600 4800 L8100 4800 ZM8100 4800 L7600 4800 L7600 4600 L8100 4600 ZM8100 4600 L7600 4600 L7600 4400 L8100 4400 ZM8100 4400 L7600 4400 L7600 4200 L8100 4200 ZM8100 4200 L7600 4200 L7600 4000 L8100 4000 ZM8100 4000 L7600 4000 L7600 3800 L8100 3800 ZM8100 3800 L7600 3800 L7600 3600 L8100 3600 ZM8100 3600 L7600 3600 L7600 3400 L8100 3400 ZM8100 3400 L7600 3400 L7600 3200 L8100 3200 ZM8100 3200 L7600 3200 L7600 3000 L8100 3000 Z" fill="#476579" fill-rule="nonzero"/>
<path id="glyph-100-arm-1-seam-32" data-cell="32" d="M9600 6800 Q8600 6700 7600 6800" fill="none" stroke="#17272F" stroke-width="150" stroke-linecap="butt"/>
<path id="glyph-100-arm-1-seam-45" data-cell="45" d="M9600 4200 Q8600 4100 7600 4200" fill="none" stroke="#17272F" stroke-width="150" stroke-linecap="butt"/>
<path id="glyph-100-arm-1-outline" d="M9600 13200 L9600 13000 L9600 12800 L9600 12600 L9600 12400 L9600 12200 L9600 12000 L9600 11800 L9600 11600 L9600 11400 L9600 11200 L9600 11000 L9600 10800 L9600 10600 L9600 10400 L9600 10200 L9600 10000 L9600 9800 L9600 9600 L9600 9400 L9600 9200 L9600 9000 L9600 8800 L9600 8600 L9600 8400 L9600 8200 L9600 8000 L9600 7800 L9600 7600 L9600 7400 L9600 7200 L9600 7000 L9600 6800 L9600 6600 L9600 6400 L9600 6200 L9600 6000 L9600 5800 L9600 5600 L9600 5400 L9600 5200 L9600 5000 L9600 4800 L9600 4600 L9600 4400 L9600 4200 L9600 4000 L9600 3800 L9600 3600 L9600 3400 L9600 3200 L9600 3000 L7600 3000 L7600 3200 L7600 3400 L7600 3600 L7600 3800 L7600 4000 L7600 4200 L7600 4400 L7600 4600 L7600 4800 L7600 5000 L7600 5200 L7600 5400 L7600 5600 L7600 5800 L7600 6000 L7600 6200 L7600 6400 L7600 6600 L7600 6800 L7600 7000 L7600 7200 L7600 7400 L7600 7600 L7600 7800 L7600 8000 L7600 8200 L7600 8400 L7600 8600 L7600 8800 L7600 9000 L7600 9200 L7600 9400 L7600 9600 L7600 9800 L7600 10000 L7600 10200 L7600 10400 L7600 10600 L7600 10800 L7600 11000 L7600 11200 L7600 11400 L7600 11600 L7600 11800 L7600 12000 L7600 12200 L7600 12400 L7600 12600 L7600 12800 L7600 13000 L7600 13200 Z" fill="none" stroke="#17272F" stroke-width="280" stroke-linejoin="round"/>
</g></g>
</svg>

