<svg xmlns="http://www.w3.org/2000/svg" xmlns:xlink="http://www.w3.org/1999/xlink" width="107" height="190" viewBox="0 0 107 190"><path d="M57.000 84.000 L58.346 84.050 L59.694 84.174 L61.021 84.395 L62.338 84.692 L63.622 85.080 L64.886 85.544 L66.104 86.091 L67.290 86.715 L68.420 87.410 L69.507 88.183 L70.529 89.015 L71.496 89.922 L72.392 90.874 L73.216 91.894 L73.974 92.957 L74.641 94.064 L75.242 95.224 L75.749 96.404 L76.178 97.632 L76.517 98.864 L76.763 100.132 L76.928 101.400 L76.990 102.671 L76.970 103.965 L76.856 105.233 L76.649 106.512 L76.360 107.755 L75.972 108.989 L75.510 110.192 L74.955 111.352 L74.317 112.495 L73.605 113.577 L72.810 114.625 L71.953 115.609 L71.015 116.543 L70.027 117.412 L68.967 118.213 L67.864 118.950 L66.706 119.603 L65.501 120.195 L64.261 120.695 L62.984 121.125 L61.685 121.465 L60.359 121.726 L59.024 121.897 L57.674 121.984 L56.326 121.984 L54.976 121.897 L53.641 121.726 L52.315 121.465 L51.016 121.125 L49.739 120.695 L48.499 120.195 L47.294 119.603 L46.136 118.950 L45.033 118.213 L43.973 117.412 L42.985 116.543 L42.047 115.609 L41.190 114.625 L40.395 113.577 L39.683 112.495 L39.045 111.352 L38.490 110.192 L38.028 108.989 L37.640 107.755 L37.351 106.512 L37.144 105.233 L37.030 103.965 L37.010 102.671 L37.072 101.400 L37.237 100.132 L37.483 98.864 L37.822 97.632 L38.251 96.404 L38.758 95.224 L39.359 94.064 L40.026 92.957 L40.784 91.894 L41.608 90.874 L42.504 89.922 L43.471 89.015 L44.493 88.183 L45.580 87.410 L46.710 86.715 L47.896 86.091 L49.114 85.544 L50.378 85.080 L51.662 84.692 L52.979 84.395 L54.306 84.174 L55.654 84.050 L57.000 84.000 ZM57.000 64.000 L54.364 64.092 L51.743 64.339 L49.138 64.767 L46.569 65.352 L44.037 66.111 L41.561 67.025 L39.143 68.108 L36.803 69.341 L34.539 70.734 L32.378 72.270 L30.310 73.955 L28.370 75.772 L26.538 77.725 L24.853 79.802 L23.303 81.988 L21.910 84.292 L20.679 86.671 L19.612 89.152 L18.726 91.685 L18.012 94.296 L17.493 96.939 L17.151 99.624 L17.013 102.333 L17.058 105.023 L17.300 107.724 L17.729 110.379 L18.344 113.016 L19.147 115.585 L20.121 118.100 L21.279 120.537 L22.586 122.873 L24.063 125.121 L25.677 127.247 L27.437 129.268 L29.321 131.147 L31.329 132.908 L33.444 134.513 L35.658 135.985 L37.968 137.296 L40.342 138.456 L42.796 139.452 L45.297 140.290 L47.853 140.961 L50.437 141.467 L53.055 141.804 L55.681 141.974 L58.319 141.974 L60.945 141.804 L63.563 141.467 L66.147 140.961 L68.703 140.290 L71.204 139.452 L73.658 138.456 L76.032 137.296 L78.342 135.985 L80.556 134.513 L82.671 132.908 L84.679 131.147 L86.563 129.268 L88.323 127.247 L89.937 125.121 L91.414 122.873 L92.721 120.537 L93.879 118.100 L94.853 115.585 L95.656 113.016 L96.271 110.379 L96.700 107.724 L96.942 105.023 L96.987 102.333 L96.849 99.624 L96.507 96.939 L95.988 94.296 L95.274 91.685 L94.388 89.152 L93.321 86.671 L92.090 84.292 L90.697 81.988 L89.147 79.802 L87.462 77.725 L85.630 75.772 L83.690 73.955 L81.622 72.270 L79.461 70.734 L77.197 69.341 L74.857 68.108 L72.439 67.025 L69.963 66.111 L67.431 65.352 L64.862 64.767 L62.257 64.339 L59.636 64.092 L57.000 64.000 Z" fill="#7593A7" fill-rule="evenodd"/>
<path d="M57.000 69.000 L59.314 69.081 L61.616 69.298 L63.902 69.674 L66.158 70.187 L68.378 70.853 L70.550 71.655 L72.669 72.604 L74.720 73.685 L76.701 74.903 L78.593 76.248 L80.400 77.720 L82.097 79.310 L83.695 81.012 L85.164 82.825 L86.516 84.730 L87.728 86.735 L88.801 88.809 L89.728 90.965 L90.500 93.172 L91.121 95.438 L91.571 97.737 L91.869 100.068 L91.988 102.417 L91.949 104.758 L91.739 107.101 L91.366 109.412 L90.832 111.701 L90.133 113.936 L89.287 116.123 L88.279 118.241 L87.140 120.278 L85.854 122.235 L84.445 124.092 L82.910 125.853 L81.263 127.496 L79.510 129.034 L77.658 130.438 L75.723 131.727 L73.700 132.873 L71.618 133.890 L69.468 134.763 L67.273 135.499 L65.031 136.087 L62.762 136.532 L60.465 136.827 L58.158 136.976 L55.842 136.976 L53.535 136.827 L51.238 136.532 L48.969 136.087 L46.727 135.499 L44.532 134.763 L42.382 133.890 L40.300 132.873 L38.277 131.727 L36.342 130.438 L34.490 129.034 L32.737 127.496 L31.090 125.853 L29.555 124.092 L28.146 122.235 L26.860 120.278 L25.721 118.241 L24.713 116.123 L23.867 113.936 L23.168 111.701 L22.634 109.412 L22.261 107.101 L22.051 104.758 L22.012 102.417 L22.131 100.068 L22.429 97.737 L22.879 95.438 L23.500 93.172 L24.272 90.965 L25.199 88.809 L26.272 86.735 L27.484 84.730 L28.836 82.825 L30.305 81.012 L31.903 79.310 L33.600 77.720 L35.407 76.248 L37.299 74.903 L39.280 73.685 L41.331 72.604 L43.450 71.655 L45.622 70.853 L47.842 70.187 L50.098 69.674 L52.384 69.298 L54.686 69.081 L57.000 69.000 ZM57.000 64.000 L54.364 64.092 L51.743 64.339 L49.138 64.767 L46.569 65.352 L44.037 66.111 L41.561 67.025 L39.143 68.108 L36.803 69.341 L34.539 70.734 L32.378 72.270 L30.310 73.955 L28.370 75.772 L26.538 77.725 L24.853 79.802 L23.303 81.988 L21.910 84.292 L20.679 86.671 L19.612 89.152 L18.726 91.685 L18.012 94.296 L17.493 96.939 L17.151 99.624 L17.013 102.333 L17.058 105.023 L17.300 107.724 L17.729 110.379 L18.344 113.016 L19.147 115.585 L20.121 118.100 L21.279 120.537 L22.586 122.873 L24.063 125.121 L25.677 127.247 L27.437 129.268 L29.321 131.147 L31.329 132.908 L33.444 134.513 L35.658 135.985 L37.968 137.296 L40.342 138.456 L42.796 139.452 L45.297 140.290 L47.853 140.961 L50.437 141.467 L53.055 141.804 L55.681 141.974 L58.319 141.974 L60.945 141.804 L63.563 141.467 L66.147 140.961 L68.703 140.290 L71.204 139.452 L73.658 138.456 L76.032 137.296 L78.342 135.985 L80.556 134.513 L82.671 132.908 L84.679 131.147 L86.563 129.268 L88.323 127.247 L89.937 125.121 L91.414 122.873 L92.721 120.537 L93.879 118.100 L94.853 115.585 L95.656 113.016 L96.271 110.379 L96.700 107.724 L96.942 105.023 L96.987 102.333 L96.849 99.624 L96.507 96.939 L95.988 94.296 L95.274 91.685 L94.388 89.152 L93.321 86.671 L92.090 84.292 L90.697 81.988 L89.147 79.802 L87.462 77.725 L85.630 75.772 L83.690 73.955 L81.622 72.270 L79.461 70.734 L77.197 69.341 L74.857 68.108 L72.439 67.025 L69.963 66.111 L67.431 65.352 L64.862 64.767 L62.257 64.339 L59.636 64.092 L57.000 64.000 Z" fill="#476579" fill-rule="evenodd"/>
<path class="seam" d="M67.290 86.715 Q73.904 79.127 77.197 69.341" fill="none" stroke="#17272F" stroke-width="1.5"/>
<path class="seam" d="M76.990 102.671 Q86.883 104.490 96.987 102.333" fill="none" stroke="#17272F" stroke-width="1.5"/>
<path class="seam" d="M66.706 119.603 Q69.551 129.262 76.032 137.296" fill="none" stroke="#17272F" stroke-width="1.5"/>
<path class="seam" d="M47.294 119.603 Q40.935 127.406 37.968 137.296" fill="none" stroke="#17272F" stroke-width="1.5"/>
<path class="seam" d="M37.010 102.671 Q27.188 100.519 17.013 102.333" fill="none" stroke="#17272F" stroke-width="1.5"/>
<path class="seam" d="M46.710 86.715 Q43.547 77.156 36.803 69.341" fill="none" stroke="#17272F" stroke-width="1.5"/>
<path d="M57.000 84.000 L58.346 84.050 L59.694 84.174 L61.021 84.395 L62.338 84.692 L63.622 85.080 L64.886 85.544 L66.104 86.091 L67.290 86.715 L68.420 87.410 L69.507 88.183 L70.529 89.015 L71.496 89.922 L72.392 90.874 L73.216 91.894 L73.974 92.957 L74.641 94.064 L75.242 95.224 L75.749 96.404 L76.178 97.632 L76.517 98.864 L76.763 100.132 L76.928 101.400 L76.990 102.671 L76.970 103.965 L76.856 105.233 L76.649 106.512 L76.360 107.755 L75.972 108.989 L75.510 110.192 L74.955 111.352 L74.317 112.495 L73.605 113.577 L72.810 114.625 L71.953 115.609 L71.015 116.543 L70.027 117.412 L68.967 118.213 L67.864 118.950 L66.706 119.603 L65.501 120.195 L64.261 120.695 L62.984 121.125 L61.685 121.465 L60.359 121.726 L59.024 121.897 L57.674 121.984 L56.326 121.984 L54.976 121.897 L53.641 121.726 L52.315 121.465 L51.016 121.125 L49.739 120.695 L48.499 120.195 L47.294 119.603 L46.136 118.950 L45.033 118.213 L43.973 117.412 L42.985 116.543 L42.047 115.609 L41.190 114.625 L40.395 113.577 L39.683 112.495 L39.045 111.352 L38.490 110.192 L38.028 108.989 L37.640 107.755 L37.351 106.512 L37.144 105.233 L37.030 103.965 L37.010 102.671 L37.072 101.400 L37.237 100.132 L37.483 98.864 L37.822 97.632 L38.251 96.404 L38.758 95.224 L39.359 94.064 L40.026 92.957 L40.784 91.894 L41.608 90.874 L42.504 89.922 L43.471 89.015 L44.493 88.183 L45.580 87.410 L46.710 86.715 L47.896 86.091 L49.114 85.544 L50.378 85.080 L51.662 84.692 L52.979 84.395 L54.306 84.174 L55.654 84.050 L57.000 84.000 ZM57.000 64.000 L54.364 64.092 L51.743 64.339 L49.138 64.767 L46.569 65.352 L44.037 66.111 L41.561 67.025 L39.143 68.108 L36.803 69.341 L34.539 70.734 L32.378 72.270 L30.310 73.955 L28.370 75.772 L26.538 77.725 L24.853 79.802 L23.303 81.988 L21.910 84.292 L20.679 86.671 L19.612 89.152 L18.726 91.685 L18.012 94.296 L17.493 96.939 L17.151 99.624 L17.013 102.333 L17.058 105.023 L17.300 107.724 L17.729 110.379 L18.344 113.016 L19.147 115.585 L20.121 118.100 L21.279 120.537 L22.586 122.873 L24.063 125.121 L25.677 127.247 L27.437 129.268 L29.321 131.147 L31.329 132.908 L33.444 134.513 L35.658 135.985 L37.968 137.296 L40.342 138.456 L42.796 139.452 L45.297 140.290 L47.853 140.961 L50.437 141.467 L53.055 141.804 L55.681 141.974 L58.319 141.974 L60.945 141.804 L63.563 141.467 L66.147 140.961 L68.703 140.290 L71.204 139.452 L73.658 138.456 L76.032 137.296 L78.342 135.985 L80.556 134.513 L82.671 132.908 L84.679 131.147 L86.563 129.268 L88.323 127.247 L89.937 125.121 L91.414 122.873 L92.721 120.537 L93.879 118.100 L94.853 115.585 L95.656 113.016 L96.271 110.379 L96.700 107.724 L96.942 105.023 L96.987 102.333 L96.849 99.624 L96.507 96.939 L95.988 94.296 L95.274 91.685 L94.388 89.152 L93.321 86.671 L92.090 84.292 L90.697 81.988 L89.147 79.802 L87.462 77.725 L85.630 75.772 L83.690 73.955 L81.622 72.270 L79.461 70.734 L77.197 69.341 L74.857 68.108 L72.439 67.025 L69.963 66.111 L67.431 65.352 L64.862 64.767 L62.257 64.339 L59.636 64.092 L57.000 64.000 Z" fill="none" stroke="#17272F" stroke-width="2.8" stroke-linejoin="round"/>
<path d="M35.000 132.000 L35.000 130.000 L35.000 128.000 L35.000 126.000 L35.000 124.000 L35.000 122.000 L35.000 120.000 L35.000 118.000 L35.000 116.000 L35.000 114.000 L35.000 112.000 L35.000 110.000 L35.000 108.000 L35.000 106.000 L35.000 104.000 L35.000 102.000 L35.000 100.000 L35.000 98.000 L35.000 96.000 L35.000 94.000 L35.000 92.000 L35.000 90.000 L35.000 88.000 L35.000 86.000 L35.000 84.000 L35.000 82.000 L35.000 80.000 L35.000 78.000 L35.000 76.000 L35.000 74.000 L35.000 72.000 L35.000 70.000 L35.000 68.000 L35.000 66.000 L35.000 64.000 L35.000 62.000 L35.000 60.000 L35.000 58.000 L35.000 56.000 L35.000 54.000 L35.000 52.000 L35.000 50.000 L35.000 48.000 L35.000 46.000 L35.000 44.000 L35.000 42.000 L35.000 40.000 L35.000 38.000 L35.000 36.000 L35.000 34.000 L35.000 32.000 L35.000 30.000 L15.000 30.000 L15.000 32.000 L15.000 34.000 L15.000 36.000 L15.000 38.000 L15.000 40.000 L15.000 42.000 L15.000 44.000 L15.000 46.000 L15.000 48.000 L15.000 50.000 L15.000 52.000 L15.000 54.000 L15.000 56.000 L15.000 58.000 L15.000 60.000 L15.000 62.000 L15.000 64.000 L15.000 66.000 L15.000 68.000 L15.000 70.000 L15.000 72.000 L15.000 74.000 L15.000 76.000 L15.000 78.000 L15.000 80.000 L15.000 82.000 L15.000 84.000 L15.000 86.000 L15.000 88.000 L15.000 90.000 L15.000 92.000 L15.000 94.000 L15.000 96.000 L15.000 98.000 L15.000 100.000 L15.000 102.000 L15.000 104.000 L15.000 106.000 L15.000 108.000 L15.000 110.000 L15.000 112.000 L15.000 114.000 L15.000 116.000 L15.000 118.000 L15.000 120.000 L15.000 122.000 L15.000 124.000 L15.000 126.000 L15.000 128.000 L15.000 130.000 L15.000 132.000 Z" fill="#7593A7" fill-rule="evenodd"/>
<path d="M20.000 132.000 L20.000 130.000 L20.000 128.000 L20.000 126.000 L20.000 124.000 L20.000 122.000 L20.000 120.000 L20.000 118.000 L20.000 116.000 L20.000 114.000 L20.000 112.000 L20.000 110.000 L20.000 108.000 L20.000 106.000 L20.000 104.000 L20.000 102.000 L20.000 100.000 L20.000 98.000 L20.000 96.000 L20.000 94.000 L20.000 92.000 L20.000 90.000 L20.000 88.000 L20.000 86.000 L20.000 84.000 L20.000 82.000 L20.000 80.000 L20.000 78.000 L20.000 76.000 L20.000 74.000 L20.000 72.000 L20.000 70.000 L20.000 68.000 L20.000 66.000 L20.000 64.000 L20.000 62.000 L20.000 60.000 L20.000 58.000 L20.000 56.000 L20.000 54.000 L20.000 52.000 L20.000 50.000 L20.000 48.000 L20.000 46.000 L20.000 44.000 L20.000 42.000 L20.000 40.000 L20.000 38.000 L20.000 36.000 L20.000 34.000 L20.000 32.000 L20.000 30.000 L15.000 30.000 L15.000 32.000 L15.000 34.000 L15.000 36.000 L15.000 38.000 L15.000 40.000 L15.000 42.000 L15.000 44.000 L15.000 46.000 L15.000 48.000 L15.000 50.000 L15.000 52.000 L15.000 54.000 L15.000 56.000 L15.000 58.000 L15.000 60.000 L15.000 62.000 L15.000 64.000 L15.000 66.000 L15.000 68.000 L15.000 70.000 L15.000 72.000 L15.000 74.000 L15.000 76.000 L15.000 78.000 L15.000 80.000 L15.000 82.000 L15.000 84.000 L15.000 86.000 L15.000 88.000 L15.000 90.000 L15.000 92.000 L15.000 94.000 L15.000 96.000 L15.000 98.000 L15.000 100.000 L15.000 102.000 L15.000 104.000 L15.000 106.000 L15.000 108.000 L15.000 110.000 L15.000 112.000 L15.000 114.000 L15.000 116.000 L15.000 118.000 L15.000 120.000 L15.000 122.000 L15.000 124.000 L15.000 126.000 L15.000 128.000 L15.000 130.000 L15.000 132.000 Z" fill="#476579" fill-rule="evenodd"/>
<path class="seam" d="M35.000 120.000 Q25.000 118.000 15.000 120.000" fill="none" stroke="#17272F" stroke-width="1.5"/>
<path class="seam" d="M35.000 94.000 Q25.000 92.000 15.000 94.000" fill="none" stroke="#17272F" stroke-width="1.5"/>
<path class="seam" d="M35.000 68.000 Q25.000 66.000 15.000 68.000" fill="none" stroke="#17272F" stroke-width="1.5"/>
<path class="seam" d="M35.000 42.000 Q25.000 40.000 15.000 42.000" fill="none" stroke="#17272F" stroke-width="1.5"/>
<path d="M35.000 132.000 L35.000 130.000 L35.000 128.000 L35.000 126.000 L35.000 124.000 L35.000 122.000 L35.000 120.000 L35.000 118.000 L35.000 116.000 L35.000 114.000 L35.000 112.000 L35.000 110.000 L35.000 108.000 L35.000 106.000 L35.000 104.000 L35.000 102.000 L35.000 100.000 L35.000 98.000 L35.000 96.000 L35.000 94.000 L35.000 92.000 L35.000 90.000 L35.000 88.000 L35.000 86.000 L35.000 84.000 L35.000 82.000 L35.000 80.000 L35.000 78.000 L35.000 76.000 L35.000 74.000 L35.000 72.000 L35.000 70.000 L35.000 68.000 L35.000 66.000 L35.000 64.000 L35.000 62.000 L35.000 60.000 L35.000 58.000 L35.000 56.000 L35.000 54.000 L35.000 52.000 L35.000 50.000 L35.000 48.000 L35.000 46.000 L35.000 44.000 L35.000 42.000 L35.000 40.000 L35.000 38.000 L35.000 36.000 L35.000 34.000 L35.000 32.000 L35.000 30.000 L15.000 30.000 L15.000 32.000 L15.000 34.000 L15.000 36.000 L15.000 38.000 L15.000 40.000 L15.000 42.000 L15.000 44.000 L15.000 46.000 L15.000 48.000 L15.000 50.000 L15.000 52.000 L15.000 54.000 L15.000 56.000 L15.000 58.000 L15.000 60.000 L15.000 62.000 L15.000 64.000 L15.000 66.000 L15.000 68.000 L15.000 70.000 L15.000 72.000 L15.000 74.000 L15.000 76.000 L15.000 78.000 L15.000 80.000 L15.000 82.000 L15.000 84.000 L15.000 86.000 L15.000 88.000 L15.000 90.000 L15.000 92.000 L15.000 94.000 L15.000 96.000 L15.000 98.000 L15.000 100.000 L15.000 102.000 L15.000 104.000 L15.000 106.000 L15.000 108.000 L15.000 110.000 L15.000 112.000 L15.000 114.000 L15.000 116.000 L15.000 118.000 L15.000 120.000 L15.000 122.000 L15.000 124.000 L15.000 126.000 L15.000 128.000 L15.000 130.000 L15.000 132.000 Z" fill="none" stroke="#17272F" stroke-width="2.8" stroke-linejoin="round"/></svg>