<svg xmlns="http://www.w3.org/2000/svg" xmlns:xlink="http://www.w3.org/1999/xlink" width="127" height="190" viewBox="0 0 127 190"><path d="M26.354 41.916 L28.334 41.671 L30.314 41.425 L32.293 41.180 L34.273 40.934 L35.824 40.733 L37.364 40.672 L39.335 40.592 L41.328 40.510 L43.197 40.433 L44.703 40.400 L46.333 40.483 L48.326 40.578 L50.318 40.673 L51.857 40.737 L53.318 40.938 L55.228 41.212 L57.203 41.495 L58.755 41.708 L60.160 42.031 L61.977 42.481 L63.914 42.960 L65.332 43.297 L66.661 43.781 L68.498 44.447 L70.207 45.065 L71.499 45.574 L72.903 46.274 L74.693 47.156 L76.017 47.794 L77.177 48.524 L78.774 49.550 L80.163 50.435 L81.254 51.239 L82.572 52.324 L83.930 53.433 L84.937 54.328 L86.038 55.480 L87.287 56.772 L88.190 57.768 L89.118 59.005 L90.203 60.429 L90.981 61.525 L91.762 62.868 L92.649 64.370 L93.283 65.559 L93.922 67.028 L94.599 68.553 L95.069 69.819 L95.559 71.426 L96.029 72.927 L96.320 74.248 L96.641 75.999 L96.918 77.432 L97.021 78.784 L97.145 80.654 L97.247 82.006 L97.161 83.379 L97.070 85.228 L96.978 86.575 L96.719 88.048 L96.436 89.753 L96.152 91.066 L95.693 92.613 L95.247 94.162 L94.780 95.414 L94.100 96.998 L93.516 98.393 L92.881 99.562 L91.971 101.135 L91.262 102.389 L90.475 103.458 L89.343 104.963 L88.506 106.100 L87.590 107.060 L86.265 108.437 L85.275 109.485 L84.253 110.336 L82.791 111.528 L81.600 112.511 L80.492 113.263 L78.977 114.223 L77.516 115.154 L76.340 115.827 L74.876 116.527 L73.080 117.395 L71.826 118.018 L70.519 118.466 L68.653 119.123 L66.956 119.722 L65.614 120.147 L64.049 120.510 L62.107 120.969 L60.418 121.372 L59.002 121.638 L57.314 121.859 L55.337 122.121 L53.533 122.362 L52.064 122.514 L50.412 122.572 L48.418 122.648 L46.425 122.724 L44.867 122.792 L43.355 122.721 L41.407 122.625 L39.415 122.527 L37.484 122.432 L35.938 122.345 L34.340 122.129 L32.362 121.870 L30.384 121.611 L28.406 121.352 L26.428 121.093 L23.572 142.907 L25.550 143.166 L27.528 143.425 L29.506 143.684 L31.484 143.943 L33.843 144.245 L36.277 144.399 L38.332 144.500 L40.324 144.598 L42.361 144.699 L44.834 144.792 L47.264 144.708 L49.257 144.632 L51.251 144.556 L53.585 144.461 L56.083 144.214 L58.234 143.930 L60.211 143.667 L62.478 143.362 L64.979 142.894 L67.173 142.378 L69.114 141.919 L71.431 141.364 L73.892 140.600 L75.959 139.874 L77.857 139.206 L80.308 138.317 L82.647 137.205 L84.443 136.338 L86.573 135.302 L88.858 134.004 L90.765 132.798 L92.619 131.619 L94.795 130.115 L96.695 128.576 L98.325 127.246 L100.341 125.517 L102.118 123.690 L103.559 122.192 L105.363 120.237 L106.925 118.186 L108.190 116.503 L109.734 114.338 L111.021 112.138 L112.107 110.255 L113.351 107.911 L114.334 105.637 L115.220 103.551 L116.135 101.068 L116.809 98.787 L117.469 96.505 L118.036 93.927 L118.414 91.697 L118.817 89.236 L119.027 86.609 L119.134 84.473 L119.247 81.861 L119.099 79.232 L118.958 77.121 L118.722 74.500 L118.276 72.010 L117.873 69.837 L117.290 67.272 L116.587 64.959 L115.903 62.753 L114.986 60.285 L114.055 58.159 L113.086 55.976 L111.857 53.644 L110.720 51.707 L109.477 49.612 L107.965 47.449 L106.636 45.696 L105.150 43.756 L103.393 41.786 L101.872 40.207 L100.203 38.487 L98.242 36.725 L96.514 35.306 L94.746 33.862 L92.627 32.306 L90.659 31.036 L88.898 29.907 L86.666 28.543 L84.411 27.418 L82.621 26.537 L80.446 25.475 L78.037 24.506 L75.995 23.764 L74.081 23.070 L71.651 22.224 L69.195 21.603 L67.258 21.124 L65.203 20.616 L62.718 20.068 L60.320 19.717 L58.346 19.434 L56.306 19.142 L53.812 18.824 L51.366 18.698 L49.374 18.603 L47.381 18.508 L45.025 18.402 L42.545 18.442 L40.428 18.528 L38.435 18.610 L36.419 18.693 L33.974 18.811 L31.565 19.101 L29.585 19.347 L27.605 19.592 L25.626 19.838 L23.646 20.084 Z" fill="#7593A7" fill-rule="evenodd"/>
<path d="M24.323 25.542 L26.303 25.296 L28.282 25.051 L30.262 24.805 L32.242 24.559 L34.436 24.292 L36.655 24.187 L38.660 24.105 L40.653 24.024 L42.708 23.940 L44.945 23.901 L47.119 24.002 L49.112 24.097 L51.104 24.192 L53.324 24.303 L55.559 24.591 L57.566 24.878 L59.541 25.161 L61.727 25.478 L63.942 25.970 L65.938 26.463 L67.875 26.942 L70.071 27.492 L72.226 28.248 L74.121 28.935 L76.080 29.646 L78.209 30.500 L80.191 31.471 L81.981 32.353 L84.004 33.355 L85.968 34.561 L87.688 35.665 L89.511 36.839 L91.373 38.206 L93.028 39.560 L94.664 40.902 L96.386 42.447 L97.914 44.025 L99.366 45.533 L100.910 47.259 L102.257 49.023 L103.524 50.694 L104.853 52.590 L105.981 54.498 L107.055 56.325 L108.135 58.372 L109.022 60.376 L109.890 62.352 L110.695 64.519 L111.330 66.576 L111.974 68.686 L112.485 70.940 L112.867 73.007 L113.271 75.233 L113.473 77.536 L113.610 79.587 L113.747 81.897 L113.641 84.199 L113.538 86.263 L113.357 88.570 L112.991 90.785 L112.636 92.883 L112.140 95.145 L111.530 97.244 L110.913 99.341 L110.110 101.517 L109.275 103.477 L108.392 105.532 L107.300 107.582 L106.259 109.387 L105.116 111.351 L103.762 113.241 L102.529 114.880 L101.149 116.703 L99.567 118.409 L98.155 119.877 L96.575 121.509 L94.807 123.019 L93.219 124.314 L91.496 125.714 L89.587 127.030 L87.818 128.154 L86.023 129.292 L84.015 130.434 L82.052 131.385 L80.255 132.253 L78.188 133.242 L76.022 134.021 L74.133 134.686 L72.158 135.380 L69.977 136.059 L67.848 136.567 L65.906 137.026 L63.839 137.514 L61.609 137.931 L59.487 138.215 L57.509 138.478 L55.445 138.751 L53.205 138.975 L51.041 139.060 L49.048 139.136 L47.054 139.212 L44.843 139.292 L42.610 139.204 L40.595 139.105 L38.602 139.007 L36.579 138.907 L34.367 138.770 L32.198 138.489 L30.220 138.230 L28.242 137.971 L26.264 137.712 L24.286 137.453 L23.572 142.907 L25.550 143.166 L27.528 143.425 L29.506 143.684 L31.484 143.943 L33.843 144.245 L36.277 144.399 L38.332 144.500 L40.324 144.598 L42.361 144.699 L44.834 144.792 L47.264 144.708 L49.257 144.632 L51.251 144.556 L53.585 144.461 L56.083 144.214 L58.234 143.930 L60.211 143.667 L62.478 143.362 L64.979 142.894 L67.173 142.378 L69.114 141.919 L71.431 141.364 L73.892 140.600 L75.959 139.874 L77.857 139.206 L80.308 138.317 L82.647 137.205 L84.443 136.338 L86.573 135.302 L88.858 134.004 L90.765 132.798 L92.619 131.619 L94.795 130.115 L96.695 128.576 L98.325 127.246 L100.341 125.517 L102.118 123.690 L103.559 122.192 L105.363 120.237 L106.925 118.186 L108.190 116.503 L109.734 114.338 L111.021 112.138 L112.107 110.255 L113.351 107.911 L114.334 105.637 L115.220 103.551 L116.135 101.068 L116.809 98.787 L117.469 96.505 L118.036 93.927 L118.414 91.697 L118.817 89.236 L119.027 86.609 L119.134 84.473 L119.247 81.861 L119.099 79.232 L118.958 77.121 L118.722 74.500 L118.276 72.010 L117.873 69.837 L117.290 67.272 L116.587 64.959 L115.903 62.753 L114.986 60.285 L114.055 58.159 L113.086 55.976 L111.857 53.644 L110.720 51.707 L109.477 49.612 L107.965 47.449 L106.636 45.696 L105.150 43.756 L103.393 41.786 L101.872 40.207 L100.203 38.487 L98.242 36.725 L96.514 35.306 L94.746 33.862 L92.627 32.306 L90.659 31.036 L88.898 29.907 L86.666 28.543 L84.411 27.418 L82.621 26.537 L80.446 25.475 L78.037 24.506 L75.995 23.764 L74.081 23.070 L71.651 22.224 L69.195 21.603 L67.258 21.124 L65.203 20.616 L62.718 20.068 L60.320 19.717 L58.346 19.434 L56.306 19.142 L53.812 18.824 L51.366 18.698 L49.374 18.603 L47.381 18.508 L45.025 18.402 L42.545 18.442 L40.428 18.528 L38.435 18.610 L36.419 18.693 L33.974 18.811 L31.565 19.101 L29.585 19.347 L27.605 19.592 L25.626 19.838 L23.646 20.084 Z" fill="#476579" fill-rule="evenodd"/>
<path class="seam" d="M37.364 40.672 Q38.885 29.601 36.419 18.693" fill="none" stroke="#17272F" stroke-width="1.5"/>
<path class="seam" d="M60.160 42.031 Q64.618 31.802 65.203 20.616" fill="none" stroke="#17272F" stroke-width="1.5"/>
<path class="seam" d="M78.774 49.550 Q86.358 41.422 90.659 31.036" fill="none" stroke="#17272F" stroke-width="1.5"/>
<path class="seam" d="M92.649 64.370 Q103.121 60.800 111.857 53.644" fill="none" stroke="#17272F" stroke-width="1.5"/>
<path class="seam" d="M97.247 82.006 Q108.148 83.926 119.247 81.861" fill="none" stroke="#17272F" stroke-width="1.5"/>
<path class="seam" d="M92.881 99.562 Q101.496 106.636 112.107 110.255" fill="none" stroke="#17272F" stroke-width="1.5"/>
<path class="seam" d="M78.977 114.223 Q83.164 124.538 90.765 132.798" fill="none" stroke="#17272F" stroke-width="1.5"/>
<path class="seam" d="M60.418 121.372 Q60.731 132.448 64.979 142.894" fill="none" stroke="#17272F" stroke-width="1.5"/>
<path class="seam" d="M37.484 122.432 Q34.896 133.226 36.277 144.399" fill="none" stroke="#17272F" stroke-width="1.5"/>
<path d="M26.354 41.916 L28.334 41.671 L30.314 41.425 L32.293 41.180 L34.273 40.934 L35.824 40.733 L37.364 40.672 L39.335 40.592 L41.328 40.510 L43.197 40.433 L44.703 40.400 L46.333 40.483 L48.326 40.578 L50.318 40.673 L51.857 40.737 L53.318 40.938 L55.228 41.212 L57.203 41.495 L58.755 41.708 L60.160 42.031 L61.977 42.481 L63.914 42.960 L65.332 43.297 L66.661 43.781 L68.498 44.447 L70.207 45.065 L71.499 45.574 L72.903 46.274 L74.693 47.156 L76.017 47.794 L77.177 48.524 L78.774 49.550 L80.163 50.435 L81.254 51.239 L82.572 52.324 L83.930 53.433 L84.937 54.328 L86.038 55.480 L87.287 56.772 L88.190 57.768 L89.118 59.005 L90.203 60.429 L90.981 61.525 L91.762 62.868 L92.649 64.370 L93.283 65.559 L93.922 67.028 L94.599 68.553 L95.069 69.819 L95.559 71.426 L96.029 72.927 L96.320 74.248 L96.641 75.999 L96.918 77.432 L97.021 78.784 L97.145 80.654 L97.247 82.006 L97.161 83.379 L97.070 85.228 L96.978 86.575 L96.719 88.048 L96.436 89.753 L96.152 91.066 L95.693 92.613 L95.247 94.162 L94.780 95.414 L94.100 96.998 L93.516 98.393 L92.881 99.562 L91.971 101.135 L91.262 102.389 L90.475 103.458 L89.343 104.963 L88.506 106.100 L87.590 107.060 L86.265 108.437 L85.275 109.485 L84.253 110.336 L82.791 111.528 L81.600 112.511 L80.492 113.263 L78.977 114.223 L77.516 115.154 L76.340 115.827 L74.876 116.527 L73.080 117.395 L71.826 118.018 L70.519 118.466 L68.653 119.123 L66.956 119.722 L65.614 120.147 L64.049 120.510 L62.107 120.969 L60.418 121.372 L59.002 121.638 L57.314 121.859 L55.337 122.121 L53.533 122.362 L52.064 122.514 L50.412 122.572 L48.418 122.648 L46.425 122.724 L44.867 122.792 L43.355 122.721 L41.407 122.625 L39.415 122.527 L37.484 122.432 L35.938 122.345 L34.340 122.129 L32.362 121.870 L30.384 121.611 L28.406 121.352 L26.428 121.093 L23.572 142.907 L25.550 143.166 L27.528 143.425 L29.506 143.684 L31.484 143.943 L33.843 144.245 L36.277 144.399 L38.332 144.500 L40.324 144.598 L42.361 144.699 L44.834 144.792 L47.264 144.708 L49.257 144.632 L51.251 144.556 L53.585 144.461 L56.083 144.214 L58.234 143.930 L60.211 143.667 L62.478 143.362 L64.979 142.894 L67.173 142.378 L69.114 141.919 L71.431 141.364 L73.892 140.600 L75.959 139.874 L77.857 139.206 L80.308 138.317 L82.647 137.205 L84.443 136.338 L86.573 135.302 L88.858 134.004 L90.765 132.798 L92.619 131.619 L94.795 130.115 L96.695 128.576 L98.325 127.246 L100.341 125.517 L102.118 123.690 L103.559 122.192 L105.363 120.237 L106.925 118.186 L108.190 116.503 L109.734 114.338 L111.021 112.138 L112.107 110.255 L113.351 107.911 L114.334 105.637 L115.220 103.551 L116.135 101.068 L116.809 98.787 L117.469 96.505 L118.036 93.927 L118.414 91.697 L118.817 89.236 L119.027 86.609 L119.134 84.473 L119.247 81.861 L119.099 79.232 L118.958 77.121 L118.722 74.500 L118.276 72.010 L117.873 69.837 L117.290 67.272 L116.587 64.959 L115.903 62.753 L114.986 60.285 L114.055 58.159 L113.086 55.976 L111.857 53.644 L110.720 51.707 L109.477 49.612 L107.965 47.449 L106.636 45.696 L105.150 43.756 L103.393 41.786 L101.872 40.207 L100.203 38.487 L98.242 36.725 L96.514 35.306 L94.746 33.862 L92.627 32.306 L90.659 31.036 L88.898 29.907 L86.666 28.543 L84.411 27.418 L82.621 26.537 L80.446 25.475 L78.037 24.506 L75.995 23.764 L74.081 23.070 L71.651 22.224 L69.195 21.603 L67.258 21.124 L65.203 20.616 L62.718 20.068 L60.320 19.717 L58.346 19.434 L56.306 19.142 L53.812 18.824 L51.366 18.698 L49.374 18.603 L47.381 18.508 L45.025 18.402 L42.545 18.442 L40.428 18.528 L38.435 18.610 L36.419 18.693 L33.974 18.811 L31.565 19.101 L29.585 19.347 L27.605 19.592 L25.626 19.838 L23.646 20.084 Z" fill="none" stroke="#17272F" stroke-width="2.8" stroke-linejoin="round"/>
<path d="M35.000 132.000 L35.000 130.000 L35.000 128.000 L35.000 126.000 L35.000 124.000 L35.000 122.000 L35.000 120.000 L35.000 118.000 L35.000 116.000 L35.000 114.000 L35.000 112.000 L35.000 110.000 L35.000 108.000 L35.000 106.000 L35.000 104.000 L35.000 102.000 L35.000 100.000 L35.000 98.000 L35.000 96.000 L35.000 94.000 L35.000 92.000 L35.000 90.000 L35.000 88.000 L35.000 86.000 L35.000 84.000 L35.000 82.000 L35.000 80.000 L35.000 78.000 L35.000 76.000 L35.000 74.000 L35.000 72.000 L35.000 70.000 L35.000 68.000 L35.000 66.000 L35.000 64.000 L35.000 62.000 L35.000 60.000 L35.000 58.000 L35.000 56.000 L35.000 54.000 L35.000 52.000 L35.000 50.000 L35.000 48.000 L35.000 46.000 L35.000 44.000 L35.000 42.000 L35.000 40.000 L35.000 38.000 L35.000 36.000 L35.000 34.000 L35.000 32.000 L35.000 30.000 L13.000 30.000 L13.000 32.000 L13.000 34.000 L13.000 36.000 L13.000 38.000 L13.000 40.000 L13.000 42.000 L13.000 44.000 L13.000 46.000 L13.000 48.000 L13.000 50.000 L13.000 52.000 L13.000 54.000 L13.000 56.000 L13.000 58.000 L13.000 60.000 L13.000 62.000 L13.000 64.000 L13.000 66.000 L13.000 68.000 L13.000 70.000 L13.000 72.000 L13.000 74.000 L13.000 76.000 L13.000 78.000 L13.000 80.000 L13.000 82.000 L13.000 84.000 L13.000 86.000 L13.000 88.000 L13.000 90.000 L13.000 92.000 L13.000 94.000 L13.000 96.000 L13.000 98.000 L13.000 100.000 L13.000 102.000 L13.000 104.000 L13.000 106.000 L13.000 108.000 L13.000 110.000 L13.000 112.000 L13.000 114.000 L13.000 116.000 L13.000 118.000 L13.000 120.000 L13.000 122.000 L13.000 124.000 L13.000 126.000 L13.000 128.000 L13.000 130.000 L13.000 132.000 Z" fill="#7593A7" fill-rule="evenodd"/>
<path d="M18.500 132.000 L18.500 130.000 L18.500 128.000 L18.500 126.000 L18.500 124.000 L18.500 122.000 L18.500 120.000 L18.500 118.000 L18.500 116.000 L18.500 114.000 L18.500 112.000 L18.500 110.000 L18.500 108.000 L18.500 106.000 L18.500 104.000 L18.500 102.000 L18.500 100.000 L18.500 98.000 L18.500 96.000 L18.500 94.000 L18.500 92.000 L18.500 90.000 L18.500 88.000 L18.500 86.000 L18.500 84.000 L18.500 82.000 L18.500 80.000 L18.500 78.000 L18.500 76.000 L18.500 74.000 L18.500 72.000 L18.500 70.000 L18.500 68.000 L18.500 66.000 L18.500 64.000 L18.500 62.000 L18.500 60.000 L18.500 58.000 L18.500 56.000 L18.500 54.000 L18.500 52.000 L18.500 50.000 L18.500 48.000 L18.500 46.000 L18.500 44.000 L18.500 42.000 L18.500 40.000 L18.500 38.000 L18.500 36.000 L18.500 34.000 L18.500 32.000 L18.500 30.000 L13.000 30.000 L13.000 32.000 L13.000 34.000 L13.000 36.000 L13.000 38.000 L13.000 40.000 L13.000 42.000 L13.000 44.000 L13.000 46.000 L13.000 48.000 L13.000 50.000 L13.000 52.000 L13.000 54.000 L13.000 56.000 L13.000 58.000 L13.000 60.000 L13.000 62.000 L13.000 64.000 L13.000 66.000 L13.000 68.000 L13.000 70.000 L13.000 72.000 L13.000 74.000 L13.000 76.000 L13.000 78.000 L13.000 80.000 L13.000 82.000 L13.000 84.000 L13.000 86.000 L13.000 88.000 L13.000 90.000 L13.000 92.000 L13.000 94.000 L13.000 96.000 L13.000 98.000 L13.000 100.000 L13.000 102.000 L13.000 104.000 L13.000 106.000 L13.000 108.000 L13.000 110.000 L13.000 112.000 L13.000 114.000 L13.000 116.000 L13.000 118.000 L13.000 120.000 L13.000 122.000 L13.000 124.000 L13.000 126.000 L13.000 128.000 L13.000 130.000 L13.000 132.000 Z" fill="#476579" fill-rule="evenodd"/>
<path class="seam" d="M35.000 120.000 Q24.000 118.000 13.000 120.000" fill="none" stroke="#17272F" stroke-width="1.5"/>
<path class="seam" d="M35.000 94.000 Q24.000 92.000 13.000 94.000" fill="none" stroke="#17272F" stroke-width="1.5"/>
<path class="seam" d="M35.000 68.000 Q24.000 66.000 13.000 68.000" fill="none" stroke="#17272F" stroke-width="1.5"/>
<path class="seam" d="M35.000 42.000 Q24.000 40.000 13.000 42.000" fill="none" stroke="#17272F" stroke-width="1.5"/>
<path d="M35.000 132.000 L35.000 130.000 L35.000 128.000 L35.000 126.000 L35.000 124.000 L35.000 122.000 L35.000 120.000 L35.000 118.000 L35.000 116.000 L35.000 114.000 L35.000 112.000 L35.000 110.000 L35.000 108.000 L35.000 106.000 L35.000 104.000 L35.000 102.000 L35.000 100.000 L35.000 98.000 L35.000 96.000 L35.000 94.000 L35.000 92.000 L35.000 90.000 L35.000 88.000 L35.000 86.000 L35.000 84.000 L35.000 82.000 L35.000 80.000 L35.000 78.000 L35.000 76.000 L35.000 74.000 L35.000 72.000 L35.000 70.000 L35.000 68.000 L35.000 66.000 L35.000 64.000 L35.000 62.000 L35.000 60.000 L35.000 58.000 L35.000 56.000 L35.000 54.000 L35.000 52.000 L35.000 50.000 L35.000 48.000 L35.000 46.000 L35.000 44.000 L35.000 42.000 L35.000 40.000 L35.000 38.000 L35.000 36.000 L35.000 34.000 L35.000 32.000 L35.000 30.000 L13.000 30.000 L13.000 32.000 L13.000 34.000 L13.000 36.000 L13.000 38.000 L13.000 40.000 L13.000 42.000 L13.000 44.000 L13.000 46.000 L13.000 48.000 L13.000 50.000 L13.000 52.000 L13.000 54.000 L13.000 56.000 L13.000 58.000 L13.000 60.000 L13.000 62.000 L13.000 64.000 L13.000 66.000 L13.000 68.000 L13.000 70.000 L13.000 72.000 L13.000 74.000 L13.000 76.000 L13.000 78.000 L13.000 80.000 L13.000 82.000 L13.000 84.000 L13.000 86.000 L13.000 88.000 L13.000 90.000 L13.000 92.000 L13.000 94.000 L13.000 96.000 L13.000 98.000 L13.000 100.000 L13.000 102.000 L13.000 104.000 L13.000 106.000 L13.000 108.000 L13.000 110.000 L13.000 112.000 L13.000 114.000 L13.000 116.000 L13.000 118.000 L13.000 120.000 L13.000 122.000 L13.000 124.000 L13.000 126.000 L13.000 128.000 L13.000 130.000 L13.000 132.000 Z" fill="none" stroke="#17272F" stroke-width="2.8" stroke-linejoin="round"/></svg>